<svg width="24" height="20" viewBox="0 0 24 20" fill="none" xmlns="http://www.w3.org/2000/svg">
<path d="M12 19C17.25 15.4525 22.5 11.5 22.5 6.25003C22.502 5.56004 22.3675 4.87646 22.1044 4.2386C21.8413 3.60075 21.4546 3.02121 20.9667 2.53331C20.4788 2.0454 19.8993 1.65877 19.2614 1.39563C18.6236 1.1325 17.94 0.998052 17.25 1.00003C15.9 1.00003 14.565 1.51003 13.5375 2.53753L12 4.07503L10.4625 2.53753C9.976 2.04817 9.39754 1.65983 8.76041 1.39483C8.12328 1.12983 7.44005 0.993408 6.75 0.993408C6.05996 0.993408 5.37673 1.12983 4.7396 1.39483C4.10247 1.65983 3.52401 2.04817 3.0375 2.53753C2.54934 3.02458 2.16222 3.60328 1.89837 4.24039C1.63452 4.87749 1.49914 5.56045 1.5 6.25003C1.5 11.5 6.75 15.4525 12 19Z" fill="black" fill-opacity="0.5" stroke="white" stroke-width="1.5"/>
</svg>
